<svg xmlns="http://www.w3.org/2000/svg" xmlns:xlink="http://www.w3.org/1999/xlink" viewBox="0 0 881 478"><g transform="translate(-7.418 -1.62)" id="ss1492553846_1"><g transform="translate(-0 0)" id="ss1492553846_2"><path d="M 312.121 179.247 C 312.121 178.205 312.966 177.361 314.009 177.361 C 315.051 177.361 315.896 178.205 315.896 179.247 C 315.896 180.29 315.051 181.134 314.009 181.134 C 312.966 181.134 312.121 180.29 312.121 179.247 Z" fill="rgba(255,255,255,0.2)"></path><path d="M 169.335 127.354 C 169.335 126.312 170.18 125.467 171.222 125.467 C 172.265 125.467 173.11 126.312 173.11 127.354 C 173.11 128.396 172.265 129.241 171.222 129.241 C 170.18 129.241 169.335 128.396 169.335 127.354 Z" fill="rgba(255,255,255,0.2)"></path><path d="M 493.845 86.58 C 493.845 85.538 494.69 84.693 495.732 84.693 C 496.775 84.693 497.62 85.538 497.62 86.58 C 497.62 87.622 496.775 88.466 495.732 88.466 C 494.69 88.466 493.845 87.622 493.845 86.58 Z" fill="rgba(255,255,255,0.2)"></path><path d="M 263.906 43.953 C 263.906 42.911 264.751 42.067 265.794 42.067 C 266.837 42.067 267.682 42.911 267.682 43.953 C 267.682 44.995 266.837 45.84 265.794 45.84 C 264.751 45.84 263.906 44.995 263.906 43.953 Z" fill="rgba(255,255,255,0.2)"></path><path d="M 247.217 314.542 C 247.217 313.5 248.063 312.655 249.105 312.655 C 250.148 312.655 250.993 313.5 250.993 314.542 C 250.993 315.584 250.148 316.428 249.105 316.428 C 248.063 316.428 247.217 315.584 247.217 314.542 Z" fill="rgba(255,255,255,0.2)"></path><path d="M 137.811 164.421 C 137.811 163.379 138.656 162.534 139.699 162.534 C 140.742 162.534 141.587 163.379 141.587 164.421 C 141.587 165.463 140.742 166.307 139.699 166.307 C 138.656 166.307 137.811 165.463 137.811 164.421 Z" fill="rgba(255,255,255,0.2)"></path><path d="M 415.963 112.527 C 415.963 111.485 416.808 110.641 417.851 110.641 C 418.893 110.641 419.739 111.485 419.739 112.527 C 419.739 113.57 418.893 114.414 417.851 114.414 C 416.808 114.414 415.963 113.57 415.963 112.527 Z" fill="rgba(255,255,255,0.2)"></path><path d="M 475.302 331.223 C 475.302 330.181 476.147 329.336 477.19 329.336 C 478.233 329.336 479.078 330.181 479.078 331.223 C 479.078 332.265 478.233 333.109 477.19 333.109 C 476.147 333.109 475.302 332.265 475.302 331.223 Z" fill="rgba(255,255,255,0.2)"></path><path d="M 313.973 281.182 C 313.973 280.14 314.819 279.295 315.861 279.295 C 316.904 279.295 317.749 280.14 317.749 281.182 C 317.749 282.224 316.904 283.069 315.861 283.069 C 314.819 283.069 313.973 282.224 313.973 281.182 Z" fill="rgba(255,255,255,0.2)"></path><path d="M 375.166 25.42 C 375.166 24.377 376.011 23.533 377.054 23.533 C 378.097 23.533 378.942 24.377 378.942 25.42 C 378.942 26.462 378.097 27.306 377.054 27.306 C 376.011 27.306 375.166 26.462 375.166 25.42 Z" fill="rgba(255,255,255,0.2)"></path><path d="M 718.221 42.1 C 718.221 41.058 719.067 40.214 720.109 40.214 C 721.152 40.214 721.997 41.058 721.997 42.1 C 721.997 43.143 721.152 43.987 720.109 43.987 C 719.067 43.987 718.221 43.143 718.221 42.1 Z" fill="rgba(255,255,255,0.2)"></path><path d="M 584.708 181.1 C 584.708 180.058 585.554 179.214 586.596 179.214 C 587.639 179.214 588.484 180.058 588.484 181.1 C 588.484 182.142 587.639 182.987 586.596 182.987 C 585.554 182.987 584.708 182.142 584.708 181.1 Z" fill="rgba(255,255,255,0.2)"></path><path d="M 351.061 249.674 C 351.061 248.632 351.906 247.788 352.949 247.788 C 353.991 247.788 354.837 248.632 354.837 249.674 C 354.837 250.717 353.991 251.561 352.949 251.561 C 351.906 251.561 351.061 250.717 351.061 249.674 Z" fill="rgba(255,255,255,0.2)"></path><path d="M 13.57 55.073 C 13.57 54.031 14.415 53.186 15.458 53.186 C 16.5 53.186 17.346 54.031 17.346 55.073 C 17.346 56.115 16.5 56.96 15.458 56.96 C 14.415 56.96 13.57 56.115 13.57 55.073 Z" fill="rgba(255,255,255,0.2)"></path><path d="M 148.937 23.567 C 148.937 22.525 149.782 21.68 150.825 21.68 C 151.867 21.68 152.713 22.525 152.713 23.567 C 152.713 24.609 151.867 25.454 150.825 25.454 C 149.782 25.454 148.937 24.609 148.937 23.567 Z" fill="rgba(255,255,255,0.2)"></path><path d="M 601.396 53.22 C 601.396 52.178 602.241 51.333 603.284 51.333 C 604.326 51.333 605.171 52.178 605.171 53.22 C 605.171 54.262 604.326 55.107 603.284 55.107 C 602.241 55.107 601.396 54.262 601.396 53.22 Z" fill="rgba(255,255,255,0.2)"></path><path d="M 525.368 21.713 C 525.368 20.67 526.213 19.826 527.256 19.826 C 528.298 19.826 529.144 20.67 529.144 21.713 C 529.144 22.755 528.298 23.599 527.256 23.599 C 526.213 23.599 525.368 22.755 525.368 21.713 Z" fill="rgba(255,255,255,0.2)"></path><path d="M 388.147 212.608 C 388.147 211.566 388.992 210.721 390.035 210.721 C 391.078 210.721 391.923 211.566 391.923 212.608 C 391.923 213.65 391.078 214.495 390.035 214.495 C 388.992 214.495 388.147 213.65 388.147 212.608 Z" fill="rgba(255,255,255,0.2)"></path><path d="M 265.76 99.554 C 265.76 98.511 266.605 97.667 267.648 97.667 C 268.69 97.667 269.536 98.511 269.536 99.554 C 269.536 100.596 268.69 101.44 267.648 101.44 C 266.605 101.44 265.76 100.596 265.76 99.554 Z" fill="rgba(255,255,255,0.2)"></path><path d="M 315.827 19.86 C 315.827 18.818 316.672 17.973 317.715 17.973 C 318.758 17.973 319.603 18.818 319.603 19.86 C 319.603 20.902 318.758 21.746 317.715 21.746 C 316.672 21.746 315.827 20.902 315.827 19.86 Z" fill="rgba(255,255,255,0.2)"></path><path d="M 510.533 155.154 C 510.533 154.112 511.378 153.267 512.421 153.267 C 513.464 153.267 514.309 154.112 514.309 155.154 C 514.309 156.196 513.464 157.041 512.421 157.041 C 511.378 157.041 510.533 156.196 510.533 155.154 Z" fill="rgba(255,255,255,0.2)"></path><path d="M 445.632 329.368 C 445.632 328.326 446.478 327.482 447.52 327.482 C 448.563 327.482 449.408 328.326 449.408 329.368 C 449.408 330.41 448.563 331.255 447.52 331.255 C 446.478 331.255 445.632 330.41 445.632 329.368 Z" fill="rgba(255,255,255,0.2)"></path><g id="ss1492553846_25"><g transform="translate(183.52 170.217)" id="ss1492553846_26"><path d="M -0 1.258 C -0 0.563 0.563 0 1.259 0 C 1.954 0 2.517 0.563 2.517 1.258 C 2.517 1.953 1.954 2.516 1.259 2.516 C 0.563 2.516 -0 1.953 -0 1.258 Z" fill="rgb(255,255,255)"></path></g><g transform="translate(39.267 117.789)" id="ss1492553846_28"><path d="M -0 1.258 C -0 0.563 0.563 0 1.259 0 C 1.954 0 2.517 0.563 2.517 1.258 C 2.517 1.953 1.954 2.516 1.259 2.516 C 0.563 2.516 -0 1.953 -0 1.258 Z" fill="rgb(255,255,255)"></path></g><g transform="translate(367.113 76.597)" id="ss1492553846_30"><path d="M 0 1.258 C 0 0.563 0.563 0 1.259 0 C 1.954 0 2.517 0.563 2.517 1.258 C 2.517 1.953 1.954 2.516 1.259 2.516 C 0.563 2.516 0 1.953 0 1.258 Z" fill="rgb(255,255,255)"></path></g><g transform="translate(134.811 33.532)" id="ss1492553846_32"><path d="M 0 1.258 C 0 0.563 0.563 0 1.259 0 C 1.954 0 2.517 0.563 2.517 1.258 C 2.517 1.953 1.954 2.516 1.259 2.516 C 0.563 2.516 0 1.953 0 1.258 Z" fill="rgb(255,255,255)"></path></g><g transform="translate(117.95 306.902)" id="ss1492553846_34"><path d="M 0 1.258 C 0 0.563 0.563 0 1.259 0 C 1.954 0 2.517 0.563 2.517 1.258 C 2.517 1.953 1.954 2.516 1.259 2.516 C 0.563 2.516 0 1.953 0 1.258 Z" fill="rgb(255,255,255)"></path></g><g transform="translate(7.418 155.237)" id="ss1492553846_36"><path d="M -0 1.258 C -0 0.563 0.563 0 1.259 0 C 1.954 0 2.517 0.563 2.517 1.258 C 2.517 1.953 1.954 2.516 1.259 2.516 C 0.563 2.516 -0 1.953 -0 1.258 Z" fill="rgb(255,255,255)"></path></g><g transform="translate(288.431 102.81)" id="ss1492553846_38"><path d="M 0 1.258 C 0 0.563 0.563 0 1.259 0 C 1.954 0 2.517 0.563 2.517 1.258 C 2.517 1.953 1.954 2.516 1.259 2.516 C 0.563 2.516 0 1.953 0 1.258 Z" fill="rgb(255,255,255)"></path></g><g transform="translate(348.379 323.753)" id="ss1492553846_40"><path d="M -0 1.258 C -0 0.563 0.563 0 1.259 0 C 1.954 0 2.517 0.563 2.517 1.258 C 2.517 1.953 1.954 2.516 1.259 2.516 C 0.563 2.516 -0 1.953 -0 1.258 Z" fill="rgb(255,255,255)"></path></g><g transform="translate(185.393 273.198)" id="ss1492553846_42"><path d="M 0 1.258 C 0 0.563 0.563 0 1.259 0 C 1.954 0 2.517 0.563 2.517 1.258 C 2.517 1.953 1.954 2.516 1.259 2.516 C 0.563 2.516 0 1.953 0 1.258 Z" fill="rgb(255,255,255)"></path></g><g transform="translate(247.215 14.807)" id="ss1492553846_44"><path d="M 0 1.258 C 0 0.563 0.563 0 1.259 0 C 1.954 0 2.517 0.563 2.517 1.258 C 2.517 1.953 1.954 2.516 1.259 2.516 C 0.563 2.516 0 1.953 0 1.258 Z" fill="rgb(255,255,255)"></path></g><g transform="translate(725.01 22.469)" id="ss1492553846_46"><path d="M 0 1.258 C 0 0.563 0.563 0 1.259 0 C 1.954 0 2.517 0.563 2.517 1.258 C 2.517 1.953 1.954 2.516 1.259 2.516 C 0.563 2.516 0 1.953 0 1.258 Z" fill="rgb(255,255,255)"></path></g><g transform="translate(590.124 162.899)" id="ss1492553846_48"><path d="M 0 1.258 C 0 0.563 0.563 0 1.259 0 C 1.954 0 2.517 0.563 2.517 1.258 C 2.517 1.953 1.954 2.516 1.259 2.516 C 0.563 2.516 0 1.953 0 1.258 Z" fill="rgb(255,255,255)"></path></g><g transform="translate(354.076 232.178)" id="ss1492553846_50"><path d="M 0 1.258 C 0 0.563 0.563 0 1.259 0 C 1.954 0 2.517 0.563 2.517 1.258 C 2.517 1.953 1.954 2.516 1.259 2.516 C 0.563 2.516 0 1.953 0 1.258 Z" fill="rgb(255,255,255)"></path></g><g transform="translate(13.114 35.576)" id="ss1492553846_52"><path d="M 0 1.258 C 0 0.563 0.563 0 1.259 0 C 1.954 0 2.517 0.563 2.517 1.258 C 2.517 1.953 1.954 2.516 1.259 2.516 C 0.563 2.516 0 1.953 0 1.258 Z" fill="rgb(255,255,255)"></path></g><g transform="translate(149.873 3.745)" id="ss1492553846_54"><path d="M 0 1.258 C 0 0.563 0.563 -0 1.259 -0 C 1.954 -0 2.517 0.563 2.517 1.258 C 2.517 1.953 1.954 2.516 1.259 2.516 C 0.563 2.516 0 1.953 0 1.258 Z" fill="rgb(255,255,255)"></path></g><g transform="translate(0 170.389)" id="ss1492553846_56"><path d="M 0 1.258 C 0 0.563 0.563 0 1.259 0 C 1.954 0 2.517 0.563 2.517 1.258 C 2.517 1.953 1.954 2.516 1.259 2.516 C 0.563 2.516 0 1.953 0 1.258 Z" fill="rgb(255,255,255)"></path></g><g transform="translate(606.985 33.704)" id="ss1492553846_58"><path d="M 0 1.258 C 0 0.563 0.563 -0 1.259 -0 C 1.954 -0 2.517 0.563 2.517 1.258 C 2.517 1.953 1.954 2.516 1.259 2.516 C 0.563 2.516 0 1.953 0 1.258 Z" fill="rgb(255,255,255)"></path></g><g transform="translate(530.175 1.873)" id="ss1492553846_60"><path d="M 0 1.258 C 0 0.563 0.563 0 1.259 0 C 1.954 0 2.517 0.563 2.517 1.258 C 2.517 1.953 1.954 2.516 1.259 2.516 C 0.563 2.516 0 1.953 0 1.258 Z" fill="rgb(255,255,255)"></path></g><g transform="translate(391.543 194.73)" id="ss1492553846_62"><path d="M 0 1.258 C 0 0.563 0.563 0 1.259 0 C 1.954 0 2.517 0.563 2.517 1.258 C 2.517 1.953 1.954 2.516 1.259 2.516 C 0.563 2.516 0 1.953 0 1.258 Z" fill="rgb(255,255,255)"></path></g><g transform="translate(267.897 80.513)" id="ss1492553846_64"><path d="M 0 1.258 C 0 0.563 0.563 0 1.259 0 C 1.954 0 2.517 0.563 2.517 1.258 C 2.517 1.953 1.954 2.516 1.259 2.516 C 0.563 2.516 0 1.953 0 1.258 Z" fill="rgb(255,255,255)"></path></g><g transform="translate(318.479 0)" id="ss1492553846_66"><path d="M 0 1.258 C 0 0.563 0.563 0 1.259 0 C 1.954 0 2.517 0.563 2.517 1.258 C 2.517 1.953 1.954 2.516 1.259 2.516 C 0.563 2.516 0 1.953 0 1.258 Z" fill="rgb(255,255,255)"></path></g><g transform="translate(515.187 136.685)" id="ss1492553846_68"><path d="M 0 1.258 C 0 0.563 0.563 0 1.259 0 C 1.954 0 2.517 0.563 2.517 1.258 C 2.517 1.953 1.954 2.516 1.259 2.516 C 0.563 2.516 0 1.953 0 1.258 Z" fill="rgb(255,255,255)"></path></g><g transform="translate(449.62 312.691)" id="ss1492553846_70"><path d="M 0 1.258 C 0 0.563 0.563 0 1.259 0 C 1.954 0 2.517 0.563 2.517 1.258 C 2.517 1.953 1.954 2.516 1.259 2.516 C 0.563 2.516 0 1.953 0 1.258 Z" fill="rgb(255,255,255)"></path></g></g><g transform="translate(318.948 323.276)" id="ss1492553846_72"><path d="M 0 1.258 C 0 0.563 0.563 -0 1.259 -0 C 1.954 -0 2.517 0.563 2.517 1.258 C 2.517 1.953 1.954 2.516 1.259 2.516 C 0.563 2.516 0 1.953 0 1.258 Z" fill="rgba(255,255,255,0.4)"></path></g><g transform="translate(176.163 271.383)" id="ss1492553846_74"><path d="M 0 1.258 C 0 0.563 0.563 0 1.259 0 C 1.954 0 2.517 0.563 2.517 1.258 C 2.517 1.953 1.954 2.516 1.259 2.516 C 0.563 2.516 0 1.953 0 1.258 Z" fill="rgba(255,255,255,0.4)"></path></g><g transform="translate(500.674 230.609)" id="ss1492553846_76"><path d="M 0 1.258 C 0 0.563 0.563 -0 1.259 -0 C 1.954 -0 2.517 0.563 2.517 1.258 C 2.517 1.953 1.954 2.516 1.259 2.516 C 0.563 2.516 0 1.953 0 1.258 Z" fill="rgba(255,255,255,0.4)"></path></g><g transform="translate(270.735 187.982)" id="ss1492553846_78"><path d="M 0 1.258 C 0 0.563 0.563 0 1.259 0 C 1.954 0 2.517 0.563 2.517 1.258 C 2.517 1.953 1.954 2.516 1.259 2.516 C 0.563 2.516 0 1.953 0 1.258 Z" fill="rgba(255,255,255,0.4)"></path></g><g transform="translate(254.046 458.57)" id="ss1492553846_80"><path d="M 0 1.258 C 0 0.563 0.563 0 1.259 0 C 1.954 0 2.517 0.563 2.517 1.258 C 2.517 1.953 1.954 2.516 1.259 2.516 C 0.563 2.516 0 1.953 0 1.258 Z" fill="rgba(255,255,255,0.4)"></path></g><g transform="translate(144.639 308.45)" id="ss1492553846_82"><path d="M 0 1.258 C 0 0.563 0.563 0 1.259 0 C 1.954 0 2.517 0.563 2.517 1.258 C 2.517 1.953 1.954 2.516 1.259 2.516 C 0.563 2.516 0 1.953 0 1.258 Z" fill="rgba(255,255,255,0.4)"></path></g><g transform="translate(422.792 256.556)" id="ss1492553846_84"><path d="M -0 1.258 C -0 0.563 0.563 0 1.259 0 C 1.954 0 2.517 0.563 2.517 1.258 C 2.517 1.953 1.954 2.516 1.259 2.516 C 0.563 2.516 -0 1.953 -0 1.258 Z" fill="rgba(255,255,255,0.4)"></path></g><g transform="translate(482.131 475.251)" id="ss1492553846_86"><path d="M 0 1.258 C 0 0.563 0.563 0 1.259 0 C 1.954 0 2.517 0.563 2.517 1.258 C 2.517 1.953 1.954 2.516 1.259 2.516 C 0.563 2.516 0 1.953 0 1.258 Z" fill="rgba(255,255,255,0.4)"></path></g><g transform="translate(320.802 425.211)" id="ss1492553846_88"><path d="M 0 1.258 C 0 0.563 0.563 0 1.259 0 C 1.954 0 2.517 0.563 2.517 1.258 C 2.517 1.953 1.954 2.516 1.259 2.516 C 0.563 2.516 0 1.953 0 1.258 Z" fill="rgba(255,255,255,0.4)"></path></g><g transform="translate(381.995 169.448)" id="ss1492553846_90"><path d="M 0 1.258 C 0 0.563 0.563 0 1.259 0 C 1.954 0 2.517 0.563 2.517 1.258 C 2.517 1.953 1.954 2.516 1.259 2.516 C 0.563 2.516 0 1.953 0 1.258 Z" fill="rgba(255,255,255,0.4)"></path></g><g transform="translate(725.049 186.128)" id="ss1492553846_92"><path d="M 0 1.258 C 0 0.563 0.563 -0 1.259 -0 C 1.954 -0 2.517 0.563 2.517 1.258 C 2.517 1.953 1.954 2.516 1.259 2.516 C 0.563 2.516 0 1.953 0 1.258 Z" fill="rgba(255,255,255,0.4)"></path></g><g transform="translate(591.536 325.129)" id="ss1492553846_94"><path d="M 0 1.258 C 0 0.563 0.563 0 1.259 0 C 1.954 0 2.517 0.563 2.517 1.258 C 2.517 1.953 1.954 2.516 1.259 2.516 C 0.563 2.516 0 1.953 0 1.258 Z" fill="rgba(255,255,255,0.4)"></path></g><g transform="translate(357.89 393.703)" id="ss1492553846_96"><path d="M 0 1.258 C 0 0.563 0.563 0 1.259 0 C 1.954 0 2.517 0.563 2.517 1.258 C 2.517 1.953 1.954 2.516 1.259 2.516 C 0.563 2.516 0 1.953 0 1.258 Z" fill="rgba(255,255,255,0.4)"></path></g><g transform="translate(20.398 199.102)" id="ss1492553846_98"><path d="M 0 1.258 C 0 0.563 0.563 0 1.259 0 C 1.954 0 2.517 0.563 2.517 1.258 C 2.517 1.953 1.954 2.516 1.259 2.516 C 0.563 2.516 0 1.953 0 1.258 Z" fill="rgba(255,255,255,0.4)"></path></g><g transform="translate(155.766 167.596)" id="ss1492553846_100"><path d="M 0 1.258 C 0 0.563 0.563 0 1.259 0 C 1.954 0 2.517 0.563 2.517 1.258 C 2.517 1.953 1.954 2.516 1.259 2.516 C 0.563 2.516 0 1.953 0 1.258 Z" fill="rgba(255,255,255,0.4)"></path></g><g transform="translate(7.418 332.543)" id="ss1492553846_102"><path d="M -0 1.258 C -0 0.563 0.563 0 1.259 0 C 1.954 0 2.517 0.563 2.517 1.258 C 2.517 1.953 1.954 2.516 1.259 2.516 C 0.563 2.516 -0 1.953 -0 1.258 Z" fill="rgba(255,255,255,0.4)"></path></g><g transform="translate(608.225 197.249)" id="ss1492553846_104"><path d="M 0 1.258 C 0 0.563 0.563 0 1.259 0 C 1.954 0 2.517 0.563 2.517 1.258 C 2.517 1.953 1.954 2.516 1.259 2.516 C 0.563 2.516 0 1.953 0 1.258 Z" fill="rgba(255,255,255,0.4)"></path></g><g transform="translate(532.197 165.741)" id="ss1492553846_106"><path d="M 0 1.258 C 0 0.563 0.563 0 1.259 0 C 1.954 0 2.517 0.563 2.517 1.258 C 2.517 1.953 1.954 2.516 1.259 2.516 C 0.563 2.516 0 1.953 0 1.258 Z" fill="rgba(255,255,255,0.4)"></path></g><g transform="translate(394.976 356.637)" id="ss1492553846_108"><path d="M 0 1.258 C 0 0.563 0.563 0 1.259 0 C 1.954 0 2.517 0.563 2.517 1.258 C 2.517 1.953 1.954 2.516 1.259 2.516 C 0.563 2.516 0 1.953 0 1.258 Z" fill="rgba(255,255,255,0.4)"></path></g><g transform="translate(272.588 243.583)" id="ss1492553846_110"><path d="M 0 1.258 C 0 0.563 0.563 0 1.259 0 C 1.954 0 2.517 0.563 2.517 1.258 C 2.517 1.953 1.954 2.516 1.259 2.516 C 0.563 2.516 0 1.953 0 1.258 Z" fill="rgba(255,255,255,0.4)"></path></g><g transform="translate(322.656 163.889)" id="ss1492553846_112"><path d="M 0 1.258 C 0 0.563 0.563 0 1.259 0 C 1.954 0 2.517 0.563 2.517 1.258 C 2.517 1.953 1.954 2.516 1.259 2.516 C 0.563 2.516 0 1.953 0 1.258 Z" fill="rgba(255,255,255,0.4)"></path></g><g transform="translate(517.362 299.183)" id="ss1492553846_114"><path d="M 0 1.258 C 0 0.563 0.563 0 1.259 0 C 1.954 0 2.517 0.563 2.517 1.258 C 2.517 1.953 1.954 2.516 1.259 2.516 C 0.563 2.516 0 1.953 0 1.258 Z" fill="rgba(255,255,255,0.4)"></path></g><g transform="translate(452.46 473.397)" id="ss1492553846_116"><path d="M 0 1.258 C 0 0.563 0.563 -0 1.259 -0 C 1.954 -0 2.517 0.563 2.517 1.258 C 2.517 1.953 1.954 2.516 1.259 2.516 C 0.563 2.516 0 1.953 0 1.258 Z" fill="rgba(255,255,255,0.4)"></path></g><path d="M 812.309 183.65 C 812.309 182.955 812.872 182.392 813.567 182.392 C 814.262 182.392 814.826 182.955 814.826 183.65 C 814.826 184.345 814.262 184.908 813.567 184.908 C 812.872 184.908 812.309 184.345 812.309 183.65 Z" fill="rgba(255,255,255,0.7)"></path><path d="M 669.524 131.757 C 669.524 131.062 670.087 130.499 670.782 130.499 C 671.477 130.499 672.041 131.062 672.041 131.757 C 672.041 132.452 671.477 133.015 670.782 133.015 C 670.087 133.015 669.524 132.452 669.524 131.757 Z" fill="rgba(255,255,255,0.7)"></path><path d="M 764.095 48.356 C 764.095 47.661 764.659 47.098 765.354 47.098 C 766.049 47.098 766.612 47.661 766.612 48.356 C 766.612 49.051 766.049 49.614 765.354 49.614 C 764.659 49.614 764.095 49.051 764.095 48.356 Z" fill="rgba(255,255,255,0.7)"></path><path d="M 747.406 318.944 C 747.406 318.25 747.97 317.686 748.665 317.686 C 749.36 317.686 749.924 318.25 749.924 318.944 C 749.924 319.639 749.36 320.202 748.665 320.202 C 747.97 320.202 747.406 319.639 747.406 318.944 Z" fill="rgba(255,255,255,0.7)"></path><path d="M 637.999 168.823 C 637.999 168.129 638.562 167.565 639.257 167.565 C 639.953 167.565 640.516 168.129 640.516 168.823 C 640.516 169.518 639.953 170.081 639.257 170.081 C 638.562 170.081 637.999 169.518 637.999 168.823 Z" fill="rgba(255,255,255,0.7)"></path><path d="M 814.162 285.585 C 814.162 284.89 814.726 284.327 815.421 284.327 C 816.116 284.327 816.679 284.89 816.679 285.585 C 816.679 286.28 816.116 286.843 815.421 286.843 C 814.726 286.843 814.162 286.28 814.162 285.585 Z" fill="rgba(255,255,255,0.7)"></path><path d="M 875.355 29.822 C 875.355 29.127 875.919 28.564 876.614 28.564 C 877.309 28.564 877.872 29.127 877.872 29.822 C 877.872 30.517 877.309 31.08 876.614 31.08 C 875.919 31.08 875.355 30.517 875.355 29.822 Z" fill="rgba(255,255,255,0.7)"></path><path d="M 851.25 254.077 C 851.25 253.382 851.813 252.819 852.508 252.819 C 853.204 252.819 853.767 253.382 853.767 254.077 C 853.767 254.772 853.204 255.335 852.508 255.335 C 851.813 255.335 851.25 254.772 851.25 254.077 Z" fill="rgba(255,255,255,0.7)"></path><path d="M 513.758 59.476 C 513.758 58.781 514.321 58.218 515.016 58.218 C 515.711 58.218 516.275 58.781 516.275 59.476 C 516.275 60.17 515.711 60.734 515.016 60.734 C 514.321 60.734 513.758 60.17 513.758 59.476 Z" fill="rgba(255,255,255,0.7)"></path><path d="M 649.126 27.969 C 649.126 27.275 649.689 26.711 650.384 26.711 C 651.079 26.711 651.643 27.275 651.643 27.969 C 651.643 28.664 651.079 29.227 650.384 29.227 C 649.689 29.227 649.126 28.664 649.126 27.969 Z" fill="rgba(255,255,255,0.7)"></path><path d="M 500.778 192.917 C 500.778 192.222 501.342 191.659 502.037 191.659 C 502.732 191.659 503.295 192.222 503.295 192.917 C 503.295 193.612 502.732 194.175 502.037 194.175 C 501.342 194.175 500.778 193.612 500.778 192.917 Z" fill="rgba(255,255,255,0.7)"></path><path d="M 888.336 217.011 C 888.336 216.316 888.9 215.753 889.595 215.753 C 890.29 215.753 890.853 216.316 890.853 217.011 C 890.853 217.705 890.29 218.269 889.595 218.269 C 888.9 218.269 888.336 217.705 888.336 217.011 Z" fill="rgba(255,255,255,0.7)"></path><path d="M 765.948 103.956 C 765.948 103.261 766.511 102.698 767.206 102.698 C 767.901 102.698 768.465 103.261 768.465 103.956 C 768.465 104.651 767.901 105.214 767.206 105.214 C 766.511 105.214 765.948 104.651 765.948 103.956 Z" fill="rgba(255,255,255,0.7)"></path><path d="M 816.016 24.262 C 816.016 23.568 816.58 23.004 817.275 23.004 C 817.97 23.004 818.533 23.568 818.533 24.262 C 818.533 24.957 817.97 25.52 817.275 25.52 C 816.58 25.52 816.016 24.957 816.016 24.262 Z" fill="rgba(255,255,255,0.7)"></path></g></g></svg>